<?xml version="1.0" encoding="UTF-8"?>
<svg id="Layer_1" data-name="Layer 1" xmlns="http://www.w3.org/2000/svg" version="1.1" viewBox="0 0 27.3 27.3">
  <defs>
    <style>
      .cls-1 {
        fill: #f8fffd;
        stroke-width: 0px;
      }
    </style>
  </defs>
  <path class="cls-1" d="M9.2,12.2c.3,0,.5.2.5.5v1c0,2.2,1.8,4,4,4s4-1.8,4-4v-1c0-.3.2-.5.5-.5s.5.2.5.5v1c0,2.6-1.9,4.7-4.5,5v2h3c.3,0,.5.2.5.5s-.2.5-.5.5h-7c-.3,0-.5-.2-.5-.5s.2-.5.5-.5h3v-2c-2.6-.3-4.5-2.4-4.5-5v-1c0-.3.2-.5.5-.5"/>
  <path class="cls-1" d="M13.7,5.7c-1.7,0-3,1.3-3,3v5c0,1.7,1.3,3,3,3s3-1.3,3-3v-5c0-1.7-1.3-3-3-3h0Z"/>
</svg>