<?xml version="1.0" encoding="UTF-8"?>
<svg id="Layer_1" data-name="Layer 1" xmlns="http://www.w3.org/2000/svg" version="1.1" viewBox="0 0 16 16">
  <defs>
    <style>
      .cls-1 {
        fill: #f8fffd;
        stroke-width: 0px;
      }
    </style>
  </defs>
  <path class="cls-1" d="M10.7,12c1.1-1.1,1.7-2.5,1.7-4,0-1.5-.6-3-1.7-4l-.5.5c.9.9,1.5,2.2,1.5,3.5,0,1.4-.6,2.6-1.5,3.5l.5.5Z"/>
  <path class="cls-1" d="M9.7,11.1c.8-.8,1.3-1.9,1.3-3.1,0-1.2-.5-2.3-1.3-3.1l-.5.5c.7.7,1.1,1.6,1.1,2.6,0,1-.4,1.9-1.1,2.6l.5.5Z"/>
  <path class="cls-1" d="M8.8,10.1c.6-.6.9-1.3.9-2.1,0-.8-.3-1.6-.9-2.1l-.5.5c.4.4.7,1,.7,1.7,0,.6-.2,1.2-.7,1.7l.5.5ZM7.5,5c.1,0,.2.2.2.3v5.4c0,.2-.2.3-.3.3,0,0-.1,0-.2,0l-1.6-1.3h-1.6c-.2,0-.3-.1-.3-.3v-2.7c0-.2.1-.3.3-.3h1.6l1.6-1.3c.1,0,.2,0,.4,0"/>
</svg>